<?xml version="1.0" encoding="UTF-8" standalone="no"?>
<!DOCTYPE svg PUBLIC "-//W3C//DTD SVG 1.1//EN"
 "http://www.w3.org/Graphics/SVG/1.1/DTD/svg11.dtd">
<!-- Generated by graphviz version 13.1.2 (20250808.2320)
 -->
<!-- Title: stremet_tracking Pages: 1 -->
<svg width="1019pt" height="893pt"
 viewBox="0.00 0.00 1019.00 893.00" xmlns="http://www.w3.org/2000/svg" xmlns:xlink="http://www.w3.org/1999/xlink">
<g id="graph0" class="graph" transform="scale(1 1) rotate(0) translate(21.6 870.98)">
<title>stremet_tracking</title>
<polygon fill="#f7f7f5" stroke="none" points="-21.6,21.6 -21.6,-870.98 997.1,-870.98 997.1,21.6 -21.6,21.6"/>
<!-- customers -->
<g id="node1" class="node">
<title>customers</title>
<polygon fill="#0f766e" stroke="none" points="1,-125.88 1,-153.62 106,-153.62 106,-125.88 1,-125.88"/>
<text xml:space="preserve" text-anchor="start" x="19" y="-135.32" font-family="Helvetica,sans-Serif" font-weight="bold" font-size="14.00" fill="white">customers</text>
<text xml:space="preserve" text-anchor="start" x="7" y="-106.58" font-family="Helvetica,sans-Serif" font-size="14.00">id (PK)</text>
<text xml:space="preserve" text-anchor="start" x="7" y="-78.83" font-family="Helvetica,sans-Serif" font-size="14.00">customer_code</text>
<text xml:space="preserve" text-anchor="start" x="7" y="-51.08" font-family="Helvetica,sans-Serif" font-size="14.00">name</text>
<polygon fill="none" stroke="black" points="0,-41.62 0,-154.62 107,-154.62 107,-41.62 0,-41.62"/>
</g>
<!-- jobs -->
<g id="node2" class="node">
<title>jobs</title>
<polygon fill="#0f766e" stroke="none" points="258,-153.62 258,-181.38 374.25,-181.38 374.25,-153.62 258,-153.62"/>
<text xml:space="preserve" text-anchor="start" x="302.25" y="-163.07" font-family="Helvetica,sans-Serif" font-weight="bold" font-size="14.00" fill="white">jobs</text>
<text xml:space="preserve" text-anchor="start" x="264" y="-134.32" font-family="Helvetica,sans-Serif" font-size="14.00">id (PK)</text>
<text xml:space="preserve" text-anchor="start" x="264" y="-106.58" font-family="Helvetica,sans-Serif" font-size="14.00">job_code</text>
<text xml:space="preserve" text-anchor="start" x="264" y="-78.83" font-family="Helvetica,sans-Serif" font-size="14.00">customer_id (FK)</text>
<text xml:space="preserve" text-anchor="start" x="264" y="-51.08" font-family="Helvetica,sans-Serif" font-size="14.00">drawing_code</text>
<text xml:space="preserve" text-anchor="start" x="264" y="-23.32" font-family="Helvetica,sans-Serif" font-size="14.00">description</text>
<polygon fill="none" stroke="black" points="257,-13.88 257,-182.38 375.25,-182.38 375.25,-13.88 257,-13.88"/>
</g>
<!-- customers&#45;&gt;jobs -->
<g id="edge1" class="edge">
<title>customers&#45;&gt;jobs</title>
<path fill="none" stroke="#555555" stroke-width="1.2" d="M106.96,-98.12C106.96,-98.12 247.44,-98.12 247.44,-98.12"/>
<polygon fill="#555555" stroke="#555555" stroke-width="1.2" points="247.44,-100.93 255.44,-98.13 247.44,-95.33 247.44,-100.93"/>
<text xml:space="preserve" text-anchor="middle" x="173" y="-100.58" font-family="Helvetica,sans-Serif" font-size="14.00">1 to many</text>
</g>
<!-- parts -->
<g id="node7" class="node">
<title>parts</title>
<polygon fill="#b45309" stroke="none" points="534.5,-459.25 534.5,-487 690.5,-487 690.5,-459.25 534.5,-459.25"/>
<text xml:space="preserve" text-anchor="start" x="596" y="-468.7" font-family="Helvetica,sans-Serif" font-weight="bold" font-size="14.00" fill="white">parts</text>
<text xml:space="preserve" text-anchor="start" x="540.5" y="-439.95" font-family="Helvetica,sans-Serif" font-size="14.00">id (PK)</text>
<text xml:space="preserve" text-anchor="start" x="540.5" y="-412.2" font-family="Helvetica,sans-Serif" font-size="14.00">part_code (UNIQUE)</text>
<text xml:space="preserve" text-anchor="start" x="540.5" y="-384.45" font-family="Helvetica,sans-Serif" font-size="14.00">job_id (FK)</text>
<text xml:space="preserve" text-anchor="start" x="540.5" y="-356.7" font-family="Helvetica,sans-Serif" font-size="14.00">status_id (FK)</text>
<text xml:space="preserve" text-anchor="start" x="540.5" y="-328.95" font-family="Helvetica,sans-Serif" font-size="14.00">current_location_id (FK)</text>
<text xml:space="preserve" text-anchor="start" x="540.5" y="-301.2" font-family="Helvetica,sans-Serif" font-size="14.00">quantity</text>
<text xml:space="preserve" text-anchor="start" x="540.5" y="-273.45" font-family="Helvetica,sans-Serif" font-size="14.00">created_at</text>
<text xml:space="preserve" text-anchor="start" x="540.5" y="-245.7" font-family="Helvetica,sans-Serif" font-size="14.00">updated_at</text>
<polygon fill="none" stroke="black" points="533.5,-236.25 533.5,-488 691.5,-488 691.5,-236.25 533.5,-236.25"/>
</g>
<!-- jobs&#45;&gt;parts -->
<g id="edge2" class="edge">
<title>jobs&#45;&gt;parts</title>
<path fill="none" stroke="#555555" stroke-width="1.2" d="M362.5,-182.24C362.5,-225.55 362.5,-269.38 362.5,-269.38 362.5,-269.38 523.93,-269.38 523.93,-269.38"/>
<polygon fill="#555555" stroke="#555555" stroke-width="1.2" points="523.93,-272.18 531.93,-269.38 523.93,-266.58 523.93,-272.18"/>
<text xml:space="preserve" text-anchor="middle" x="459.25" y="-254.57" font-family="Helvetica,sans-Serif" font-size="14.00">1 to many</text>
</g>
<!-- assemblies -->
<g id="node9" class="node">
<title>assemblies</title>
<polygon fill="#b45309" stroke="none" points="526.25,-167.5 526.25,-195.25 698.75,-195.25 698.75,-167.5 526.25,-167.5"/>
<text xml:space="preserve" text-anchor="start" x="575.75" y="-176.95" font-family="Helvetica,sans-Serif" font-weight="bold" font-size="14.00" fill="white">assemblies</text>
<text xml:space="preserve" text-anchor="start" x="532.25" y="-148.2" font-family="Helvetica,sans-Serif" font-size="14.00">id (PK)</text>
<text xml:space="preserve" text-anchor="start" x="532.25" y="-120.45" font-family="Helvetica,sans-Serif" font-size="14.00">assembly_code (UNIQUE)</text>
<text xml:space="preserve" text-anchor="start" x="532.25" y="-92.7" font-family="Helvetica,sans-Serif" font-size="14.00">job_id (FK)</text>
<text xml:space="preserve" text-anchor="start" x="532.25" y="-64.95" font-family="Helvetica,sans-Serif" font-size="14.00">status_id (FK)</text>
<text xml:space="preserve" text-anchor="start" x="532.25" y="-37.2" font-family="Helvetica,sans-Serif" font-size="14.00">current_location_id (FK)</text>
<text xml:space="preserve" text-anchor="start" x="532.25" y="-9.45" font-family="Helvetica,sans-Serif" font-size="14.00">created_at</text>
<polygon fill="none" stroke="black" points="525.25,0 525.25,-196.25 699.75,-196.25 699.75,0 525.25,0"/>
</g>
<!-- jobs&#45;&gt;assemblies -->
<g id="edge3" class="edge">
<title>jobs&#45;&gt;assemblies</title>
<path fill="none" stroke="#555555" stroke-width="1.2" d="M375.03,-98.12C375.03,-98.12 515.51,-98.12 515.51,-98.12"/>
<polygon fill="#555555" stroke="#555555" stroke-width="1.2" points="515.51,-100.93 523.51,-98.13 515.51,-95.33 515.51,-100.93"/>
<text xml:space="preserve" text-anchor="middle" x="459.25" y="-100.58" font-family="Helvetica,sans-Serif" font-size="14.00">1 to many</text>
</g>
<!-- statuses -->
<g id="node3" class="node">
<title>statuses</title>
<polygon fill="#7c3aed" stroke="none" points="282.75,-306.88 282.75,-334.62 349.5,-334.62 349.5,-306.88 282.75,-306.88"/>
<text xml:space="preserve" text-anchor="start" x="288.75" y="-316.32" font-family="Helvetica,sans-Serif" font-weight="bold" font-size="14.00" fill="white">statuses</text>
<text xml:space="preserve" text-anchor="start" x="288.75" y="-287.57" font-family="Helvetica,sans-Serif" font-size="14.00">id (PK)</text>
<text xml:space="preserve" text-anchor="start" x="288.75" y="-259.82" font-family="Helvetica,sans-Serif" font-size="14.00">code</text>
<text xml:space="preserve" text-anchor="start" x="288.75" y="-232.07" font-family="Helvetica,sans-Serif" font-size="14.00">name</text>
<polygon fill="none" stroke="black" points="281.75,-222.62 281.75,-335.62 350.5,-335.62 350.5,-222.62 281.75,-222.62"/>
</g>
<!-- statuses&#45;&gt;parts -->
<g id="edge4" class="edge">
<title>statuses&#45;&gt;parts</title>
<path fill="none" stroke="#555555" stroke-width="1.2" d="M350.41,-302.5C350.41,-302.5 523.74,-302.5 523.74,-302.5"/>
<polygon fill="#555555" stroke="#555555" stroke-width="1.2" points="523.74,-305.3 531.74,-302.5 523.74,-299.7 523.74,-305.3"/>
<text xml:space="preserve" text-anchor="middle" x="459.25" y="-320.57" font-family="Helvetica,sans-Serif" font-size="14.00">1 to many</text>
</g>
<!-- statuses&#45;&gt;assemblies -->
<g id="edge7" class="edge">
<title>statuses&#45;&gt;assemblies</title>
<path fill="none" stroke="#555555" stroke-width="1.2" d="M350.41,-229.44C410.72,-229.44 529.5,-229.44 529.5,-229.44 529.5,-229.44 529.5,-205.78 529.5,-205.78"/>
<polygon fill="#555555" stroke="#555555" stroke-width="1.2" points="532.3,-205.78 529.5,-197.78 526.7,-205.78 532.3,-205.78"/>
<text xml:space="preserve" text-anchor="middle" x="459.25" y="-182.57" font-family="Helvetica,sans-Serif" font-size="14.00">1 to many</text>
</g>
<!-- locations -->
<g id="node4" class="node">
<title>locations</title>
<polygon fill="#7c3aed" stroke="none" points="240,-487.75 240,-515.5 392.25,-515.5 392.25,-487.75 240,-487.75"/>
<text xml:space="preserve" text-anchor="start" x="286.5" y="-497.2" font-family="Helvetica,sans-Serif" font-weight="bold" font-size="14.00" fill="white">locations</text>
<text xml:space="preserve" text-anchor="start" x="246" y="-468.45" font-family="Helvetica,sans-Serif" font-size="14.00">id (PK)</text>
<text xml:space="preserve" text-anchor="start" x="246" y="-440.7" font-family="Helvetica,sans-Serif" font-size="14.00">name</text>
<text xml:space="preserve" text-anchor="start" x="246" y="-412.95" font-family="Helvetica,sans-Serif" font-size="14.00">type</text>
<text xml:space="preserve" text-anchor="start" x="246" y="-385.2" font-family="Helvetica,sans-Serif" font-size="14.00">parent_location_id (FK)</text>
<polygon fill="none" stroke="black" points="239,-375.75 239,-516.5 393.25,-516.5 393.25,-375.75 239,-375.75"/>
</g>
<!-- locations&#45;&gt;locations -->
<g id="edge14" class="edge">
<title>locations&#45;&gt;locations</title>
<path fill="none" stroke="#888888" stroke-width="1.2" d="M239.27,-446.12C205.12,-446.12 172.5,-446.12 172.5,-446.12 172.5,-446.12 172.5,-522.06 172.5,-522.06 172.5,-522.06 459.5,-522.06 459.5,-522.06 459.5,-522.06 459.5,-507 459.5,-507 459.5,-507 402.67,-507 402.67,-507"/>
<polygon fill="#888888" stroke="#888888" stroke-width="1.2" points="402.67,-504.2 394.67,-507 402.67,-509.8 402.67,-504.2"/>
</g>
<!-- workstations -->
<g id="node6" class="node">
<title>workstations</title>
<polygon fill="#7c3aed" stroke="none" points="559.25,-820.62 559.25,-848.38 665.75,-848.38 665.75,-820.62 559.25,-820.62"/>
<text xml:space="preserve" text-anchor="start" x="570.5" y="-830.08" font-family="Helvetica,sans-Serif" font-weight="bold" font-size="14.00" fill="white">workstations</text>
<text xml:space="preserve" text-anchor="start" x="565.25" y="-801.33" font-family="Helvetica,sans-Serif" font-size="14.00">id (PK)</text>
<text xml:space="preserve" text-anchor="start" x="565.25" y="-773.58" font-family="Helvetica,sans-Serif" font-size="14.00">code</text>
<text xml:space="preserve" text-anchor="start" x="565.25" y="-745.83" font-family="Helvetica,sans-Serif" font-size="14.00">name</text>
<text xml:space="preserve" text-anchor="start" x="565.25" y="-718.08" font-family="Helvetica,sans-Serif" font-size="14.00">location_id (FK)</text>
<text xml:space="preserve" text-anchor="start" x="565.25" y="-690.33" font-family="Helvetica,sans-Serif" font-size="14.00">process_step</text>
<polygon fill="none" stroke="black" points="558.25,-680.88 558.25,-849.38 666.75,-849.38 666.75,-680.88 558.25,-680.88"/>
</g>
<!-- locations&#45;&gt;workstations -->
<g id="edge11" class="edge">
<title>locations&#45;&gt;workstations</title>
<path fill="none" stroke="#555555" stroke-width="1.2" d="M393.09,-497.5C468.29,-497.5 571.5,-497.5 571.5,-497.5 571.5,-497.5 571.5,-671.36 571.5,-671.36"/>
<polygon fill="#555555" stroke="#555555" stroke-width="1.2" points="568.7,-671.36 571.5,-679.36 574.3,-671.36 568.7,-671.36"/>
<text xml:space="preserve" text-anchor="middle" x="459.25" y="-637.58" font-family="Helvetica,sans-Serif" font-size="14.00">1 to many</text>
</g>
<!-- locations&#45;&gt;parts -->
<g id="edge5" class="edge">
<title>locations&#45;&gt;parts</title>
<path fill="none" stroke="#555555" stroke-width="1.2" d="M393.22,-431.88C393.22,-431.88 523.91,-431.88 523.91,-431.88"/>
<polygon fill="#555555" stroke="#555555" stroke-width="1.2" points="523.91,-434.68 531.91,-431.88 523.91,-429.08 523.91,-434.68"/>
<text xml:space="preserve" text-anchor="middle" x="459.25" y="-446.57" font-family="Helvetica,sans-Serif" font-size="14.00">1 to many</text>
</g>
<!-- locations&#45;&gt;assemblies -->
<g id="edge6" class="edge">
<title>locations&#45;&gt;assemblies</title>
<path fill="none" stroke="#555555" stroke-width="1.2" d="M384.5,-375.95C384.5,-299.91 384.5,-189.31 384.5,-189.31 384.5,-189.31 515.51,-189.31 515.51,-189.31"/>
<polygon fill="#555555" stroke="#555555" stroke-width="1.2" points="515.51,-192.11 523.51,-189.31 515.51,-186.51 515.51,-192.11"/>
<text xml:space="preserve" text-anchor="middle" x="459.25" y="-384.57" font-family="Helvetica,sans-Serif" font-size="14.00">1 to many</text>
</g>
<!-- users -->
<g id="node5" class="node">
<title>users</title>
<polygon fill="#7c3aed" stroke="none" points="585.88,-611.88 585.88,-639.62 639.12,-639.62 639.12,-611.88 585.88,-611.88"/>
<text xml:space="preserve" text-anchor="start" x="594.5" y="-621.33" font-family="Helvetica,sans-Serif" font-weight="bold" font-size="14.00" fill="white">users</text>
<text xml:space="preserve" text-anchor="start" x="591.88" y="-592.58" font-family="Helvetica,sans-Serif" font-size="14.00">id (PK)</text>
<text xml:space="preserve" text-anchor="start" x="591.88" y="-564.83" font-family="Helvetica,sans-Serif" font-size="14.00">name</text>
<text xml:space="preserve" text-anchor="start" x="591.88" y="-537.08" font-family="Helvetica,sans-Serif" font-size="14.00">role</text>
<polygon fill="none" stroke="black" points="584.88,-527.62 584.88,-640.62 640.12,-640.62 640.12,-527.62 584.88,-527.62"/>
</g>
<!-- part_events -->
<g id="node8" class="node">
<title>part_events</title>
<polygon fill="#b45309" stroke="none" points="832.75,-722.88 832.75,-750.62 974.5,-750.62 974.5,-722.88 832.75,-722.88"/>
<text xml:space="preserve" text-anchor="start" x="865.75" y="-732.33" font-family="Helvetica,sans-Serif" font-weight="bold" font-size="14.00" fill="white">part_events</text>
<text xml:space="preserve" text-anchor="start" x="838.75" y="-703.58" font-family="Helvetica,sans-Serif" font-size="14.00">id (PK)</text>
<text xml:space="preserve" text-anchor="start" x="838.75" y="-675.83" font-family="Helvetica,sans-Serif" font-size="14.00">part_id (FK)</text>
<text xml:space="preserve" text-anchor="start" x="838.75" y="-648.08" font-family="Helvetica,sans-Serif" font-size="14.00">event_type</text>
<text xml:space="preserve" text-anchor="start" x="838.75" y="-620.33" font-family="Helvetica,sans-Serif" font-size="14.00">from_status_id (FK)</text>
<text xml:space="preserve" text-anchor="start" x="838.75" y="-592.58" font-family="Helvetica,sans-Serif" font-size="14.00">to_status_id (FK)</text>
<text xml:space="preserve" text-anchor="start" x="838.75" y="-564.83" font-family="Helvetica,sans-Serif" font-size="14.00">from_location_id (FK)</text>
<text xml:space="preserve" text-anchor="start" x="838.75" y="-537.08" font-family="Helvetica,sans-Serif" font-size="14.00">to_location_id (FK)</text>
<text xml:space="preserve" text-anchor="start" x="838.75" y="-509.32" font-family="Helvetica,sans-Serif" font-size="14.00">workstation_id (FK)</text>
<text xml:space="preserve" text-anchor="start" x="838.75" y="-481.57" font-family="Helvetica,sans-Serif" font-size="14.00">user_id (FK)</text>
<text xml:space="preserve" text-anchor="start" x="838.75" y="-453.82" font-family="Helvetica,sans-Serif" font-size="14.00">event_time</text>
<text xml:space="preserve" text-anchor="start" x="838.75" y="-426.07" font-family="Helvetica,sans-Serif" font-size="14.00">notes</text>
<polygon fill="none" stroke="black" points="831.75,-416.62 831.75,-751.62 975.5,-751.62 975.5,-416.62 831.75,-416.62"/>
</g>
<!-- users&#45;&gt;part_events -->
<g id="edge9" class="edge">
<title>users&#45;&gt;part_events</title>
<path fill="none" stroke="#555555" stroke-width="1.2" d="M639.89,-584.12C639.89,-584.12 822.03,-584.12 822.03,-584.12"/>
<polygon fill="#555555" stroke="#555555" stroke-width="1.2" points="822.03,-586.93 830.03,-584.13 822.03,-581.33 822.03,-586.93"/>
<text xml:space="preserve" text-anchor="middle" x="765.75" y="-586.58" font-family="Helvetica,sans-Serif" font-size="14.00">1 to many</text>
</g>
<!-- workstations&#45;&gt;part_events -->
<g id="edge10" class="edge">
<title>workstations&#45;&gt;part_events</title>
<path fill="none" stroke="#555555" stroke-width="1.2" d="M666.58,-716.25C666.58,-716.25 822.16,-716.25 822.16,-716.25"/>
<polygon fill="#555555" stroke="#555555" stroke-width="1.2" points="822.16,-719.05 830.16,-716.25 822.16,-713.45 822.16,-719.05"/>
<text xml:space="preserve" text-anchor="middle" x="765.75" y="-707.58" font-family="Helvetica,sans-Serif" font-size="14.00">1 to many</text>
</g>
<!-- parts&#45;&gt;part_events -->
<g id="edge8" class="edge">
<title>parts&#45;&gt;part_events</title>
<path fill="none" stroke="#555555" stroke-width="1.2" d="M691.28,-452.31C691.28,-452.31 821.94,-452.31 821.94,-452.31"/>
<polygon fill="#555555" stroke="#555555" stroke-width="1.2" points="821.94,-455.11 829.94,-452.31 821.94,-449.51 821.94,-455.11"/>
<text xml:space="preserve" text-anchor="middle" x="765.75" y="-417.57" font-family="Helvetica,sans-Serif" font-size="14.00">1 to many</text>
</g>
<!-- assembly_parts -->
<g id="node10" class="node">
<title>assembly_parts</title>
<polygon fill="#b45309" stroke="none" points="844.75,-294.75 844.75,-322.5 962.5,-322.5 962.5,-294.75 844.75,-294.75"/>
<text xml:space="preserve" text-anchor="start" x="852.25" y="-304.2" font-family="Helvetica,sans-Serif" font-weight="bold" font-size="14.00" fill="white">assembly_parts</text>
<text xml:space="preserve" text-anchor="start" x="850.75" y="-275.45" font-family="Helvetica,sans-Serif" font-size="14.00">id (PK)</text>
<text xml:space="preserve" text-anchor="start" x="850.75" y="-247.7" font-family="Helvetica,sans-Serif" font-size="14.00">assembly_id (FK)</text>
<text xml:space="preserve" text-anchor="start" x="850.75" y="-219.95" font-family="Helvetica,sans-Serif" font-size="14.00">part_id (FK)</text>
<text xml:space="preserve" text-anchor="start" x="850.75" y="-192.2" font-family="Helvetica,sans-Serif" font-size="14.00">qty_used</text>
<polygon fill="none" stroke="black" points="843.75,-182.75 843.75,-323.5 963.5,-323.5 963.5,-182.75 843.75,-182.75"/>
</g>
<!-- parts&#45;&gt;assembly_parts -->
<g id="edge13" class="edge">
<title>parts&#45;&gt;assembly_parts</title>
<path fill="none" stroke="#555555" stroke-width="1.2" d="M691.28,-279.88C691.28,-279.88 834.37,-279.88 834.37,-279.88"/>
<polygon fill="#555555" stroke="#555555" stroke-width="1.2" points="834.37,-282.68 842.37,-279.88 834.37,-277.08 834.37,-282.68"/>
<text xml:space="preserve" text-anchor="middle" x="765.75" y="-285.57" font-family="Helvetica,sans-Serif" font-size="14.00">1 to many</text>
</g>
<!-- assemblies&#45;&gt;assembly_parts -->
<g id="edge12" class="edge">
<title>assemblies&#45;&gt;assembly_parts</title>
<path fill="none" stroke="#555555" stroke-width="1.2" d="M699.45,-189.5C699.45,-189.5 834.04,-189.5 834.04,-189.5"/>
<polygon fill="#555555" stroke="#555555" stroke-width="1.2" points="834.04,-192.3 842.04,-189.5 834.04,-186.7 834.04,-192.3"/>
<text xml:space="preserve" text-anchor="middle" x="765.75" y="-189.57" font-family="Helvetica,sans-Serif" font-size="14.00">1 to many</text>
</g>
</g>
</svg>
