<?xml version="1.0" encoding="UTF-8" standalone="no"?>
<!DOCTYPE svg PUBLIC "-//W3C//DTD SVG 1.1//EN"
 "http://www.w3.org/Graphics/SVG/1.1/DTD/svg11.dtd">
<!-- Generated by graphviz version 13.1.2 (20250808.2320)
 -->
<!-- Title: stremet_tracking_pitch Pages: 1 -->
<svg width="1257pt" height="258pt"
 viewBox="0.00 0.00 1257.00 258.00" xmlns="http://www.w3.org/2000/svg" xmlns:xlink="http://www.w3.org/1999/xlink">
<g id="graph0" class="graph" transform="scale(1 1) rotate(0) translate(25.2 232.98)">
<title>stremet_tracking_pitch</title>
<polygon fill="#f7f7f5" stroke="none" points="-25.2,25.2 -25.2,-232.98 1232.13,-232.98 1232.13,25.2 -25.2,25.2"/>
<!-- job -->
<g id="node1" class="node">
<title>job</title>
<path fill="#d1fae5" stroke="#059669" d="M133.17,-100.78C133.17,-100.78 12,-100.78 12,-100.78 6,-100.78 0,-94.78 0,-88.78 0,-88.78 0,-64 0,-64 0,-58 6,-52 12,-52 12,-52 133.17,-52 133.17,-52 139.17,-52 145.17,-58 145.17,-64 145.17,-64 145.17,-88.78 145.17,-88.78 145.17,-94.78 139.17,-100.78 133.17,-100.78"/>
<text xml:space="preserve" text-anchor="middle" x="72.59" y="-78.84" font-family="Helvetica,sans-Serif" font-size="14.00">ERP Job</text>
<text xml:space="preserve" text-anchor="middle" x="72.59" y="-63.09" font-family="Helvetica,sans-Serif" font-size="14.00">customer + drawing</text>
</g>
<!-- part -->
<g id="node2" class="node">
<title>part</title>
<path fill="#fde68a" stroke="#b45309" d="M450.59,-100.78C450.59,-100.78 315.17,-100.78 315.17,-100.78 309.17,-100.78 303.17,-94.78 303.17,-88.78 303.17,-88.78 303.17,-64 303.17,-64 303.17,-58 309.17,-52 315.17,-52 315.17,-52 450.59,-52 450.59,-52 456.59,-52 462.59,-58 462.59,-64 462.59,-64 462.59,-88.78 462.59,-88.78 462.59,-94.78 456.59,-100.78 450.59,-100.78"/>
<text xml:space="preserve" text-anchor="middle" x="382.88" y="-78.84" font-family="Helvetica,sans-Serif" font-size="14.00">Tracked Part</text>
<text xml:space="preserve" text-anchor="middle" x="382.88" y="-63.09" font-family="Helvetica,sans-Serif" font-size="14.00">one sheet&#45;metal piece</text>
</g>
<!-- job&#45;&gt;part -->
<g id="edge1" class="edge">
<title>job&#45;&gt;part</title>
<path fill="none" stroke="#4b5563" stroke-width="1.5" d="M145.48,-76.39C189.4,-76.39 245.94,-76.39 292.7,-76.39"/>
<polygon fill="#4b5563" stroke="#4b5563" stroke-width="1.5" points="292.56,-79.19 300.56,-76.39 292.56,-73.59 292.56,-79.19"/>
<text xml:space="preserve" text-anchor="middle" x="224.17" y="-78.84" font-family="Helvetica,sans-Serif" font-size="14.00">creates parts</text>
</g>
<!-- event -->
<g id="node3" class="node">
<title>event</title>
<path fill="#fee2e2" stroke="#dc2626" d="M834.76,-207.78C834.76,-207.78 672.34,-207.78 672.34,-207.78 666.34,-207.78 660.34,-201.78 660.34,-195.78 660.34,-195.78 660.34,-171 660.34,-171 660.34,-165 666.34,-159 672.34,-159 672.34,-159 834.76,-159 834.76,-159 840.76,-159 846.76,-165 846.76,-171 846.76,-171 846.76,-195.78 846.76,-195.78 846.76,-201.78 840.76,-207.78 834.76,-207.78"/>
<text xml:space="preserve" text-anchor="middle" x="753.55" y="-185.84" font-family="Helvetica,sans-Serif" font-size="14.00">Tracking Events</text>
<text xml:space="preserve" text-anchor="middle" x="753.55" y="-170.09" font-family="Helvetica,sans-Serif" font-size="14.00">scan, move, process, pack</text>
</g>
<!-- part&#45;&gt;event -->
<g id="edge2" class="edge">
<title>part&#45;&gt;event</title>
<path fill="none" stroke="#4b5563" stroke-width="1.5" d="M462.97,-99.34C519.91,-115.87 596.99,-138.24 657.31,-155.75"/>
<polygon fill="#4b5563" stroke="#4b5563" stroke-width="1.5" points="656.2,-158.34 664.66,-157.88 657.76,-152.96 656.2,-158.34"/>
<text xml:space="preserve" text-anchor="middle" x="561.47" y="-145.07" font-family="Helvetica,sans-Serif" font-size="14.00">produces history</text>
</g>
<!-- assembly -->
<g id="node5" class="node">
<title>assembly</title>
<path fill="#bfdbfe" stroke="#2563eb" d="M830.64,-100.78C830.64,-100.78 676.47,-100.78 676.47,-100.78 670.47,-100.78 664.47,-94.78 664.47,-88.78 664.47,-88.78 664.47,-64 664.47,-64 664.47,-58 670.47,-52 676.47,-52 676.47,-52 830.64,-52 830.64,-52 836.64,-52 842.64,-58 842.64,-64 842.64,-64 842.64,-88.78 842.64,-88.78 842.64,-94.78 836.64,-100.78 830.64,-100.78"/>
<text xml:space="preserve" text-anchor="middle" x="753.55" y="-78.84" font-family="Helvetica,sans-Serif" font-size="14.00">Final Product / Assembly</text>
<text xml:space="preserve" text-anchor="middle" x="753.55" y="-63.09" font-family="Helvetica,sans-Serif" font-size="14.00">made from 1..many parts</text>
</g>
<!-- part&#45;&gt;assembly -->
<g id="edge4" class="edge">
<title>part&#45;&gt;assembly</title>
<path fill="none" stroke="#4b5563" stroke-width="1.5" d="M462.97,-76.39C518.87,-76.39 594.19,-76.39 654.01,-76.39"/>
<polygon fill="#4b5563" stroke="#4b5563" stroke-width="1.5" points="653.95,-79.19 661.95,-76.39 653.95,-73.59 653.95,-79.19"/>
<text xml:space="preserve" text-anchor="middle" x="561.47" y="-78.84" font-family="Helvetica,sans-Serif" font-size="14.00">many parts can join</text>
</g>
<!-- location -->
<g id="node4" class="node">
<title>location</title>
<path fill="#e9d5ff" stroke="#7c3aed" d="M1194.93,-48.78C1194.93,-48.78 1019.76,-48.78 1019.76,-48.78 1013.76,-48.78 1007.76,-42.78 1007.76,-36.78 1007.76,-36.78 1007.76,-12 1007.76,-12 1007.76,-6 1013.76,0 1019.76,0 1019.76,0 1194.93,0 1194.93,0 1200.93,0 1206.93,-6 1206.93,-12 1206.93,-12 1206.93,-36.78 1206.93,-36.78 1206.93,-42.78 1200.93,-48.78 1194.93,-48.78"/>
<text xml:space="preserve" text-anchor="middle" x="1107.35" y="-26.84" font-family="Helvetica,sans-Serif" font-size="14.00">Locations</text>
<text xml:space="preserve" text-anchor="middle" x="1107.35" y="-11.09" font-family="Helvetica,sans-Serif" font-size="14.00">storage, machine, packaging</text>
</g>
<!-- event&#45;&gt;location -->
<g id="edge3" class="edge">
<title>event&#45;&gt;location</title>
<path fill="none" stroke="#4b5563" stroke-width="1.5" d="M809.52,-158.55C872.55,-130.06 975.73,-83.42 1042.33,-53.32"/>
<polygon fill="#4b5563" stroke="#4b5563" stroke-width="1.5" points="1043.27,-55.97 1049.4,-50.13 1040.96,-50.87 1043.27,-55.97"/>
<text xml:space="preserve" text-anchor="middle" x="927.26" y="-125.26" font-family="Helvetica,sans-Serif" font-size="14.00">updates state</text>
</g>
<!-- location&#45;&gt;part -->
<g id="edge5" class="edge">
<title>location&#45;&gt;part</title>
<path fill="none" stroke="#4b5563" stroke-width="1.5" d="M997.5,-17.37C926.44,-12.78 846.76,-7.64 846.76,-7.64 846.76,-7.64 660.34,-7.64 660.34,-7.64 660.34,-7.64 553.32,-34.25 472.46,-54.36"/>
<polygon fill="#4b5563" stroke="#4b5563" stroke-width="1.5" points="997.04,-20.14 1005.2,-17.86 997.4,-14.55 997.04,-20.14"/>
<polygon fill="#4b5563" stroke="#4b5563" stroke-width="1.5" points="472.02,-51.59 464.94,-56.23 473.37,-57.02 472.02,-51.59"/>
<text xml:space="preserve" text-anchor="middle" x="753.55" y="-10.09" font-family="Helvetica,sans-Serif" font-size="14.00">current location</text>
</g>
</g>
</svg>
